<?xml version="1.0" encoding="UTF-8"?>
<svg id="Layer_1" xmlns="http://www.w3.org/2000/svg" xmlns:xlink="http://www.w3.org/1999/xlink" version="1.1" viewBox="0 0 90 90">
  <!-- Generator: Adobe Illustrator 30.3.0, SVG Export Plug-In . SVG Version: 2.1.3 Build 182)  -->
  <defs>
    <style>
      .st0 {
        fill: none;
      }

      .st1 {
        fill: #c2ff91;
        fill-rule: evenodd;
      }

      .st2 {
        clip-path: url(#clippath);
      }
    </style>
    <clipPath id="clippath">
      <rect class="st0" width="90" height="90"/>
    </clipPath>
  </defs>
  <g class="st2">
    <g>
      <path class="st1" d="M5.8,55.3s0,0,0,0c0-2.2.7-3.6,1.7-4.7,1.2-1.3,2.8-2.1,4.1-2,1.8,0,1.7,1.2,4.9,1.6,3.6-2,4.8-.3,7.2,0,2.2.2,5,0,5,0-5.2-3.2-9.1-7.5-11.3-10.8-1.9-.1-15.3,1.1-11.7,16Z"/>
      <path class="st1" d="M71.9,33.8l2.3-3.3c-8-4.8-41-10.8-52.1.3-.5.5,0,1.4.8,1.1,10.7-4.4,44.1-7.4,65.9,21.5.5-2.7.8-5.4.8-8.2,0,0-8.1-7.3-17.6-11.4Z"/>
      <path class="st1" d="M25.2,60.4c-1.8-7.1-3.5-7.3-5.6-7.9-3.3-.9-8.1.5-11.5-1.3-.5.3-2.1,2.5-1.6,4.9-.8.2-1.4-.4-1.8-3.9-1.3-12.9,9.5-16.9,12.7-16.7,2.9-21.8,52-13.5,64.6-3.9l-2.4,3.4c4.5,2.6,9.8,6.9,9.8,6.9C87.8,18.8,68.5.5,45,.5S.5,20.4.5,45s9.1,31.1,22.6,38.8c1.6-2.1,5.2-11.3,2.1-23.4Z"/>
      <path class="st1" d="M48.8,71.5c2.5-1.7,4.7-3.8,6.4-6.6-2.3-3.1-5.7-5.9-9.8-8.1,2.2,4.8,3.3,9.8,3.4,14.7Z"/>
      <path class="st1" d="M39.4,78.4c-.7,1.4-1.5,2.7-2.5,4-1.4,1.9-3,3.7-4.9,5.2,3.1.9,6.2,1.5,9.5,1.8,2.1-4.3,3.4-8.6,4-12.9-1.9.8-4,1.5-6.2,1.9Z"/>
      <path class="st1" d="M41.1,74.8c1.7-.4,3.2-1,4.8-1.7,0-4.1-.6-8.1-2-12.1-.2,3.9-.8,8.9-2.8,13.8Z"/>
      <path class="st1" d="M58.6,74.4c0-2.2-.5-4.5-1.6-6.7-2,2.8-4.8,5.3-8.2,7.3-.3,4.9-1.6,9.7-3.8,14.6,0,0,0,0,0,0,.1,0,.3,0,.4,0,8.3-4.1,12.9-9.3,13.2-15.1Z"/>
      <path class="st1" d="M35.5,79c-1.4.1-2.8.2-4.2.2s-2,0-3-.1c-.7,2.7-1.6,4.8-2.4,6,.9.4,1.9.9,2.8,1.2,2.2-1.6,4.2-3.5,5.8-5.8.4-.5.7-1,1.1-1.6Z"/>
      <path class="st1" d="M26.1,34.2c-2.1.6-.6,1.6.4,1.9,1.7.6,3.3.4,5.2,2.7,1.7,2.1,3.1,5.1,7.2,5.4,8.4.4,9-8,8.8-9,3,.3,6.8,1.4,10.4,2.6.7,2.4-.6,5.7-3.1,9.2,5.5,4.6,7,11.1,3.9,17.7,2,3.2,3,6.5,2.9,9.9-.3,6.2-4.2,10.9-9.2,14.4,4.9-.8,9.5-2.4,13.7-4.7,6-6.7,4.8-14.1,4.8-14.1,0,0,4,3.4,4.9,7.1,0,0,0,0,0,0h0c5.4-5.2,9.6-11.7,11.8-19.1-23.1-33.6-56.6-25.3-61.5-23.9ZM38.8,41.5c-2.7,0-5-2.2-5-5s.1-1.3.4-1.9c.4,0,.8,0,1.3,0,.4,0,.8,0,1.2,0-.4.5-.7,1.1-.7,1.8,0,1.5,1.2,2.8,2.8,2.8s2.8-1.2,2.8-2.8-.2-1.2-.5-1.6c.9,0,1.7,0,2.5.1.2.5.3,1,.3,1.5,0,2.7-2.2,5-5,5Z"/>
      <path class="st1" d="M56.6,61.8c1.6-4.6.3-9-3.6-12.4-1.5,1.8-3.3,3.6-5.2,5.3,3.6,2.1,6.6,4.5,8.8,7.2Z"/>
      <path class="st1" d="M40.6,62.7h0c-2.1,3.5-4.8,7.8-11.6,13.2,2.8.2,5.7,0,8.4-.3,2-4.4,2.9-9,3.2-12.9Z"/>
    </g>
  </g>
</svg>